<?xml version="1.0" standalone="no"?>
<!DOCTYPE svg PUBLIC "-//W3C//DTD SVG 20010904//EN"
 "http://www.w3.org/TR/2001/REC-SVG-20010904/DTD/svg10.dtd">
<svg version="1.0" xmlns="http://www.w3.org/2000/svg"
 width="227.000000pt" height="222.000000pt" viewBox="0 0 227.000000 222.000000"
 preserveAspectRatio="xMidYMid meet">
<metadata>
Created by potrace 1.16, written by Peter Selinger 2001-2019
</metadata>
<g transform="translate(0.000000,222.000000) scale(0.100000,-0.100000)"
fill="#000000" stroke="none">
<path d="M163 2209 c-47 -14 -99 -72 -112 -125 -12 -46 -8 -81 15 -124 7 -14
193 -205 413 -425 l401 -400 -425 -425 c-421 -421 -455 -461 -455 -522 0 -120
110 -205 227 -177 45 11 75 39 478 440 l430 429 415 -416 c228 -228 430 -424
448 -436 42 -26 124 -28 169 -5 93 49 126 164 72 253 -11 17 -206 217 -435
444 l-417 412 406 407 c223 223 410 416 416 428 15 31 14 119 -3 151 -31 58
-102 102 -165 102 -59 -1 -106 -40 -394 -325 -161 -159 -343 -339 -405 -400
l-112 -110 -403 402 c-274 274 -414 407 -439 418 -41 17 -77 18 -125 4z"/>
</g>
</svg>
